<svg xmlns="http://www.w3.org/2000/svg" viewBox="0 0 1100 1090" font-family="'Segoe UI', system-ui, -apple-system, sans-serif">
  <defs>
    <filter id="shadow" x="-4%" y="-4%" width="108%" height="108%">
      <feDropShadow dx="0" dy="2" stdDeviation="3" flood-opacity="0.18"/>
    </filter>
    <linearGradient id="bgGrad" x1="0" y1="0" x2="0" y2="1">
      <stop offset="0%" stop-color="#0d1117"/>
      <stop offset="100%" stop-color="#161b22"/>
    </linearGradient>
    <linearGradient id="loopGrad" x1="0" y1="0" x2="1" y2="1">
      <stop offset="0%" stop-color="#11261d"/>
      <stop offset="100%" stop-color="#13241f"/>
    </linearGradient>
    <marker id="aBlue" markerWidth="8" markerHeight="6" refX="8" refY="3" orient="auto"><path d="M0,0 L8,3 L0,6" fill="#3b82f6"/></marker>
    <marker id="aAmber" markerWidth="8" markerHeight="6" refX="8" refY="3" orient="auto"><path d="M0,0 L8,3 L0,6" fill="#f59e0b"/></marker>
    <marker id="aGreen" markerWidth="8" markerHeight="6" refX="8" refY="3" orient="auto"><path d="M0,0 L8,3 L0,6" fill="#34d399"/></marker>
    <marker id="aCyan" markerWidth="8" markerHeight="6" refX="8" refY="3" orient="auto"><path d="M0,0 L8,3 L0,6" fill="#06b6d4"/></marker>
    <marker id="aPink" markerWidth="8" markerHeight="6" refX="8" refY="3" orient="auto"><path d="M0,0 L8,3 L0,6" fill="#f472b6"/></marker>
  </defs>

  <rect width="1100" height="1090" rx="12" fill="url(#bgGrad)"/>

  <!-- Title -->
  <text x="550" y="40" text-anchor="middle" fill="#e6edf3" font-size="23" font-weight="700">homün — Architettura</text>
  <text x="550" y="61" text-anchor="middle" fill="#7d8590" font-size="12">Assistente local-first · capable-first · core agnostico + ecosistema addon (ADR 0011)</text>

  <!-- ============ BAND 1: Surfaces/Channels (left) + Models (right) ============ -->
  <!-- Left: Surfaces & Channels -->
  <rect x="20" y="80" width="520" height="206" rx="10" fill="#1c2333" stroke="#3b82f6" stroke-width="1.5" filter="url(#shadow)"/>
  <text x="280" y="103" text-anchor="middle" fill="#93c5fd" font-size="13" font-weight="600">Superfici &amp; Canali  (client su HTTP)</text>

  <!-- Surfaces column -->
  <text x="155" y="128" text-anchor="middle" fill="#60a5fa" font-size="10" font-weight="600">Superfici</text>
  <rect x="40" y="136" width="230" height="22" rx="5" fill="#1e293b"/><text x="155" y="151" text-anchor="middle" fill="#bfdbfe" font-size="9">App desktop — Electron + React</text>
  <rect x="40" y="163" width="230" height="22" rx="5" fill="#1e293b"/><text x="155" y="178" text-anchor="middle" fill="#93c5fd" font-size="9">Web / CLI  (futuro)</text>
  <!-- Channels column -->
  <text x="410" y="128" text-anchor="middle" fill="#60a5fa" font-size="10" font-weight="600">Canali</text>
  <rect x="290" y="136" width="230" height="22" rx="5" fill="#1e293b"/><text x="405" y="151" text-anchor="middle" fill="#bfdbfe" font-size="9">WhatsApp (wa-rs)</text>
  <rect x="290" y="163" width="230" height="22" rx="5" fill="#1e293b"/><text x="405" y="178" text-anchor="middle" fill="#bfdbfe" font-size="9">Telegram (frankenstein)  · + ChannelProvider</text>

  <rect x="40" y="196" width="480" height="34" rx="6" fill="#13243b" stroke="#3b82f6" stroke-width="0.6" stroke-dasharray="3,2"/>
  <text x="280" y="210" text-anchor="middle" fill="#93c5fd" font-size="9" font-weight="600">Resilienza offline</text>
  <text x="280" y="223" text-anchor="middle" fill="#7d8590" font-size="8">offset Telegram persistito · inoltro retry · auto-reconnect all'avvio · recupero WhatsApp via history-sync</text>
  <rect x="40" y="236" width="480" height="40" rx="6" fill="#13243b" stroke="#3b82f6" stroke-width="0.6" stroke-dasharray="3,2"/>
  <text x="280" y="250" text-anchor="middle" fill="#93c5fd" font-size="9" font-weight="600">Real-time push (/api/events)</text>
  <text x="280" y="264" text-anchor="middle" fill="#7d8590" font-size="8">un inbound crea la scheda e l'app ci si sposta in tempo reale</text>

  <!-- Right: Models / Provider Registry -->
  <rect x="560" y="80" width="520" height="206" rx="10" fill="#1c2333" stroke="#22c55e" stroke-width="1.5" filter="url(#shadow)"/>
  <text x="820" y="103" text-anchor="middle" fill="#4ade80" font-size="13" font-weight="600">Modelli — Provider Registry + Ruoli</text>
  <text x="820" y="119" text-anchor="middle" fill="#7d8590" font-size="9">capable-first · binding auto/esplicito · qualunque API OpenAI-compatibile</text>

  <!-- Roles -->
  <rect x="575" y="130" width="150" height="24" rx="6" fill="#14331a"/><text x="650" y="146" text-anchor="middle" fill="#86efac" font-size="9">ruolo: orchestrator</text>
  <rect x="735" y="130" width="150" height="24" rx="6" fill="#14331a"/><text x="810" y="146" text-anchor="middle" fill="#86efac" font-size="9">ruolo: browser</text>
  <rect x="895" y="130" width="170" height="24" rx="6" fill="#14331a"/><text x="980" y="146" text-anchor="middle" fill="#86efac" font-size="9">ruolo: memory</text>

  <!-- Provider grid -->
  <rect x="575" y="162" width="112" height="22" rx="5" fill="#1a2e1a"/><text x="631" y="177" text-anchor="middle" fill="#86efac" font-size="9">GLM (Z.ai)</text>
  <rect x="695" y="162" width="112" height="22" rx="5" fill="#1a2e1a"/><text x="751" y="177" text-anchor="middle" fill="#86efac" font-size="9">Kimi</text>
  <rect x="815" y="162" width="112" height="22" rx="5" fill="#1a2e1a"/><text x="871" y="177" text-anchor="middle" fill="#86efac" font-size="9">MiniMax (vision)</text>
  <rect x="935" y="162" width="130" height="22" rx="5" fill="#1a2e1a"/><text x="1000" y="177" text-anchor="middle" fill="#86efac" font-size="9">DeepSeek</text>
  <rect x="575" y="190" width="112" height="22" rx="5" fill="#1a2e1a"/><text x="631" y="205" text-anchor="middle" fill="#86efac" font-size="9">Anthropic</text>
  <rect x="695" y="190" width="112" height="22" rx="5" fill="#1a2e1a"/><text x="751" y="205" text-anchor="middle" fill="#86efac" font-size="9">OpenAI</text>
  <rect x="815" y="190" width="112" height="22" rx="5" fill="#1a2e1a"/><text x="871" y="205" text-anchor="middle" fill="#86efac" font-size="9">Ollama (cloud)</text>
  <rect x="935" y="190" width="130" height="22" rx="5" fill="#1e3a1e" stroke="#4ade80" stroke-width="0.8" stroke-dasharray="3,2"/><text x="1000" y="205" text-anchor="middle" fill="#4ade80" font-size="9">+ OpenAI-compat</text>

  <rect x="575" y="220" width="490" height="34" rx="6" fill="#13241a" stroke="#22c55e" stroke-width="0.6" stroke-dasharray="3,2"/>
  <text x="820" y="234" text-anchor="middle" fill="#86efac" font-size="9" font-weight="600">Fallback locale</text>
  <text x="820" y="247" text-anchor="middle" fill="#7d8590" font-size="8">MLX / Gemma 4 (sidecar) per modelli piccoli · budget di contesto adattivi</text>

  <!-- Arrows down to Gateway -->
  <line x1="280" y1="286" x2="280" y2="300" stroke="#3b82f6" stroke-width="2" marker-end="url(#aBlue)"/>
  <line x1="820" y1="286" x2="820" y2="300" stroke="#22c55e" stroke-width="2" marker-end="url(#aGreen)"/>

  <!-- ============ BAND 2: Gateway ============ -->
  <rect x="20" y="302" width="1060" height="52" rx="10" fill="#1c2333" stroke="#f59e0b" stroke-width="1.5" filter="url(#shadow)"/>
  <text x="245" y="324" text-anchor="middle" fill="#fbbf24" font-size="13" font-weight="600">Desktop Gateway · Rust · loopback 127.0.0.1</text>
  <rect x="470" y="313" width="180" height="30" rx="6" fill="#292524"/><text x="560" y="332" text-anchor="middle" fill="#fcd34d" font-size="9">token 0600 + CORS allowlist</text>
  <rect x="662" y="313" width="200" height="30" rx="6" fill="#292524"/><text x="762" y="332" text-anchor="middle" fill="#fcd34d" font-size="9">read model redatti</text>
  <rect x="874" y="313" width="196" height="30" rx="6" fill="#292524"/><text x="972" y="332" text-anchor="middle" fill="#fcd34d" font-size="9">spawna sidecar + lifecycle</text>
  <line x1="550" y1="354" x2="550" y2="368" stroke="#f59e0b" stroke-width="2" marker-end="url(#aAmber)"/>

  <!-- ============ BAND 3: Agent Loop (formalized) ============ -->
  <rect x="20" y="368" width="1060" height="132" rx="12" fill="url(#loopGrad)" stroke="#34d399" stroke-width="1.6" filter="url(#shadow)"/>
  <text x="550" y="392" text-anchor="middle" fill="#34d399" font-size="14" font-weight="700">Agent Loop  ·  plan (criteri di successo) → act → verify-by-execution → replan</text>

  <!-- 7 steps -->
  <g font-size="9" font-weight="600">
    <rect x="42" y="408" width="118" height="44" rx="8" fill="#11261d" stroke="#34d399" stroke-width="1"/><text x="101" y="428" text-anchor="middle" fill="#6ee7b7">Messaggio</text><text x="101" y="442" text-anchor="middle" fill="#34d399" font-weight="400">in</text>
    <rect x="185" y="408" width="118" height="44" rx="8" fill="#11261d" stroke="#34d399" stroke-width="1"/><text x="244" y="426" text-anchor="middle" fill="#6ee7b7">Memory recall</text><text x="244" y="439" text-anchor="middle" fill="#6ee7b7">+ freschezza</text>
    <rect x="328" y="408" width="118" height="44" rx="8" fill="#11261d" stroke="#fbbf24" stroke-width="1.2"/><text x="387" y="426" text-anchor="middle" fill="#fcd34d">Plan</text><text x="387" y="439" text-anchor="middle" fill="#fcd34d" font-weight="400">criteri successo</text>
    <rect x="471" y="408" width="118" height="44" rx="8" fill="#11261d" stroke="#34d399" stroke-width="1"/><text x="530" y="426" text-anchor="middle" fill="#6ee7b7">LLM</text><text x="530" y="439" text-anchor="middle" fill="#6ee7b7" font-weight="400">role-routed</text>
    <rect x="614" y="408" width="118" height="44" rx="8" fill="#11261d" stroke="#34d399" stroke-width="1"/><text x="673" y="434" text-anchor="middle" fill="#6ee7b7">Tools</text>
    <rect x="757" y="408" width="118" height="44" rx="8" fill="#11261d" stroke="#f472b6" stroke-width="1.2"/><text x="816" y="426" text-anchor="middle" fill="#f9a8d4">Verify</text><text x="816" y="439" text-anchor="middle" fill="#f9a8d4" font-weight="400">esegui check</text>
    <rect x="900" y="408" width="118" height="44" rx="8" fill="#11261d" stroke="#34d399" stroke-width="1"/><text x="959" y="426" text-anchor="middle" fill="#6ee7b7">Save +</text><text x="959" y="439" text-anchor="middle" fill="#6ee7b7">Response</text>
  </g>
  <!-- forward arrows -->
  <g stroke="#34d399" stroke-width="1.5">
    <line x1="160" y1="430" x2="185" y2="430" marker-end="url(#aGreen)"/>
    <line x1="303" y1="430" x2="328" y2="430" marker-end="url(#aGreen)"/>
    <line x1="446" y1="430" x2="471" y2="430" marker-end="url(#aGreen)"/>
    <line x1="589" y1="430" x2="614" y2="430" marker-end="url(#aGreen)"/>
    <line x1="732" y1="430" x2="757" y2="430" marker-end="url(#aGreen)"/>
    <line x1="875" y1="430" x2="900" y2="430" marker-end="url(#aGreen)"/>
  </g>
  <!-- replan loop-back: Verify -> Plan -->
  <path d="M 816 452 C 816 482, 387 482, 387 454" fill="none" stroke="#f472b6" stroke-width="1.4" stroke-dasharray="5,3" marker-end="url(#aPink)"/>
  <text x="601" y="494" text-anchor="middle" fill="#f9a8d4" font-size="9" font-style="italic">replan / auto-correzione sul fallimento  ↺</text>

  <line x1="550" y1="500" x2="550" y2="514" stroke="#06b6d4" stroke-width="2" marker-end="url(#aCyan)"/>

  <!-- ============ BAND 4: Tools / Capability layer ============ -->
  <rect x="20" y="516" width="1060" height="104" rx="10" fill="#1c2333" stroke="#06b6d4" stroke-width="1.5" filter="url(#shadow)"/>
  <text x="550" y="538" text-anchor="middle" fill="#67e8f9" font-size="13" font-weight="600">Tool / Capability layer  (cosa l'agente può fare)</text>
  <g font-size="9">
    <rect x="34" y="552" width="200" height="56" rx="8" fill="#0e2a30" stroke="#06b6d4" stroke-width="0.8"/>
    <text x="134" y="570" text-anchor="middle" fill="#67e8f9" font-weight="600">Browser granulare</text>
    <text x="134" y="584" text-anchor="middle" fill="#7dd3fc" font-size="8">navigate/snapshot/act/screenshot</text>
    <text x="134" y="596" text-anchor="middle" fill="#7dd3fc" font-size="8">tabs/dialog · vision · set-of-marks</text>
    <rect x="244" y="552" width="195" height="56" rx="8" fill="#0e2a30" stroke="#06b6d4" stroke-width="0.8"/>
    <text x="341" y="570" text-anchor="middle" fill="#67e8f9" font-weight="600">Local Computer</text>
    <text x="341" y="584" text-anchor="middle" fill="#7dd3fc" font-size="8">shell / file / exec (da esporre)</text>
    <text x="341" y="596" text-anchor="middle" fill="#7dd3fc" font-size="8">ShellCommandPolicy · verify-by-exec</text>
    <rect x="449" y="552" width="150" height="56" rx="8" fill="#0e2a30" stroke="#06b6d4" stroke-width="0.8"/>
    <text x="524" y="570" text-anchor="middle" fill="#67e8f9" font-weight="600">Skills</text>
    <text x="524" y="586" text-anchor="middle" fill="#7dd3fc" font-size="8">skill-runtime · sandbox</text>
    <rect x="609" y="552" width="235" height="56" rx="8" fill="#0e2a30" stroke="#06b6d4" stroke-width="0.8"/>
    <text x="726" y="570" text-anchor="middle" fill="#67e8f9" font-weight="600">Connettori / MCP / Composio</text>
    <text x="726" y="586" text-anchor="middle" fill="#7dd3fc" font-size="8">MCP stdio · Composio 1000+ OAuth</text>
    <text x="726" y="598" text-anchor="middle" fill="#7dd3fc" font-size="8">recall_memory</text>
    <rect x="854" y="552" width="212" height="56" rx="8" fill="#0e2a30" stroke="#06b6d4" stroke-width="0.8"/>
    <text x="960" y="570" text-anchor="middle" fill="#67e8f9" font-weight="600">Artifacts</text>
    <text x="960" y="586" text-anchor="middle" fill="#7dd3fc" font-size="8">doc/codice nativi · versioning</text>
    <text x="960" y="598" text-anchor="middle" fill="#7dd3fc" font-size="8">create/save · download</text>
  </g>

  <!-- ============ BAND 5: Runtime | Approval&Safety | Memory ============ -->
  <rect x="20" y="632" width="346" height="150" rx="10" fill="#1a1a2e" stroke="#8b5cf6" stroke-width="1.5" filter="url(#shadow)"/>
  <text x="193" y="654" text-anchor="middle" fill="#c4b5fd" font-size="12" font-weight="600">Durable Task Runtime</text>
  <g font-size="9" fill="#a78bfa">
    <text x="193" y="676" text-anchor="middle">queue · priorità · dipendenze</text>
    <text x="193" y="694" text-anchor="middle">lease / heartbeat* · checkpoint</text>
    <text x="193" y="712" text-anchor="middle">Resource Governor* · recovery</text>
    <text x="193" y="734" text-anchor="middle">scheduler / ricorrenza*  (proattività)</text>
    <text x="193" y="760" text-anchor="middle" fill="#6b7280" font-size="8" font-style="italic">* presente ma da cablare (gap audit)</text>
  </g>

  <rect x="378" y="632" width="346" height="150" rx="10" fill="#1c2333" stroke="#ef4444" stroke-width="1.5" filter="url(#shadow)"/>
  <text x="551" y="654" text-anchor="middle" fill="#fca5a5" font-size="12" font-weight="600">Approval &amp; Safety</text>
  <g font-size="9" fill="#f87171">
    <text x="551" y="676" text-anchor="middle">browser_safety — blocca acquisti/login</text>
    <text x="551" y="694" text-anchor="middle">allowlist canali (auto-reply)</text>
    <text x="551" y="712" text-anchor="middle">tool policy read-only (canali)</text>
    <text x="551" y="730" text-anchor="middle">approval gate (azioni rischiose)</text>
    <text x="551" y="748" text-anchor="middle">contenuto = DATO, mai istruzioni</text>
  </g>

  <rect x="736" y="632" width="344" height="150" rx="10" fill="#1a1a2e" stroke="#c084fc" stroke-width="1.5" filter="url(#shadow)"/>
  <text x="908" y="654" text-anchor="middle" fill="#e9d5ff" font-size="12" font-weight="600">Memoria (SQLite, local-first)</text>
  <g font-size="9" fill="#d8b4fe">
    <text x="908" y="676" text-anchor="middle">grafo: entità / relazioni / decisioni</text>
    <text x="908" y="694" text-anchor="middle">episodi · memoria di thread</text>
    <text x="908" y="712" text-anchor="middle">contatti + identity resolution</text>
    <text x="908" y="730" text-anchor="middle">privacy domains · sensitivity</text>
    <text x="908" y="748" text-anchor="middle">recall (vector + keyword)</text>
  </g>

  <!-- ============ BAND 6: Sidecars ============ -->
  <rect x="20" y="794" width="346" height="86" rx="10" fill="#1c2333" stroke="#64748b" stroke-width="1.3" filter="url(#shadow)"/>
  <text x="193" y="815" text-anchor="middle" fill="#cbd5e1" font-size="12" font-weight="600">Sidecar Browser-automation</text>
  <text x="193" y="836" text-anchor="middle" fill="#94a3b8" font-size="9">TypeScript · Playwright/CDP · snapshot AI/aria refs</text>
  <text x="193" y="852" text-anchor="middle" fill="#94a3b8" font-size="9">sessione per-thread · navigation guard</text>

  <rect x="378" y="794" width="346" height="86" rx="10" fill="#1c2333" stroke="#64748b" stroke-width="1.3" filter="url(#shadow)"/>
  <text x="551" y="815" text-anchor="middle" fill="#cbd5e1" font-size="12" font-weight="600">Sidecar Canali</text>
  <text x="551" y="836" text-anchor="middle" fill="#94a3b8" font-size="9">WhatsApp (wa-rs) · Telegram (frankenstein)</text>
  <text x="551" y="852" text-anchor="middle" fill="#94a3b8" font-size="9">offline-resilient · stesso ChannelProvider</text>

  <rect x="736" y="794" width="344" height="86" rx="10" fill="#1c2333" stroke="#64748b" stroke-width="1.3" filter="url(#shadow)"/>
  <text x="908" y="815" text-anchor="middle" fill="#cbd5e1" font-size="12" font-weight="600">Contained Computer</text>
  <text x="908" y="836" text-anchor="middle" fill="#94a3b8" font-size="9">Linux containerizzato: browser reale + shell</text>
  <text x="908" y="852" text-anchor="middle" fill="#94a3b8" font-size="9">non invasivo · workspace dev (verify codice)</text>

  <!-- ============ BAND 7: Addon ecosystem (ADR 0011) + Cloud ============ -->
  <rect x="20" y="894" width="800" height="138" rx="10" fill="#241420" stroke="#f472b6" stroke-width="1.5" stroke-dasharray="6,3" filter="url(#shadow)"/>
  <text x="420" y="916" text-anchor="middle" fill="#f9a8d4" font-size="13" font-weight="700">Ecosistema Addon (ADR 0011) — direzione</text>
  <rect x="34" y="928" width="378" height="92" rx="8" fill="#2a1622" stroke="#f472b6" stroke-width="0.8"/>
  <text x="223" y="946" text-anchor="middle" fill="#f9a8d4" font-size="10" font-weight="600">Process Skill</text>
  <text x="223" y="962" text-anchor="middle" fill="#f5b8d0" font-size="8">trigger (canale/schedule/evento)</text>
  <text x="223" y="976" text-anchor="middle" fill="#f5b8d0" font-size="8">passi deterministici / agente</text>
  <text x="223" y="990" text-anchor="middle" fill="#f5b8d0" font-size="8">dati &amp; config · approval · binding canale</text>
  <text x="223" y="1007" text-anchor="middle" fill="#f5b8d0" font-size="8">3 origini: installati / scritti / generati</text>
  <rect x="424" y="928" width="382" height="92" rx="8" fill="#2a1622" stroke="#f472b6" stroke-width="0.8"/>
  <text x="615" y="946" text-anchor="middle" fill="#f9a8d4" font-size="10" font-weight="600">Contratto di personalizzazione</text>
  <text x="615" y="962" text-anchor="middle" fill="#f5b8d0" font-size="8">zona BLOCCATA (invarianti) · zona APERTA</text>
  <text x="615" y="976" text-anchor="middle" fill="#f5b8d0" font-size="8">overlay-dato autorato via PROMPT</text>
  <text x="615" y="990" text-anchor="middle" fill="#f5b8d0" font-size="8">validato · anteprima · versionato</text>
  <text x="615" y="1007" text-anchor="middle" fill="#f5b8d0" font-size="8">upgrade-safe (manutenzione centrale)</text>

  <rect x="832" y="894" width="248" height="138" rx="10" fill="#0e2a30" stroke="#06b6d4" stroke-width="1.5" stroke-dasharray="6,3" filter="url(#shadow)"/>
  <text x="956" y="916" text-anchor="middle" fill="#67e8f9" font-size="12" font-weight="700">Cloud / always-on</text>
  <text x="956" y="940" text-anchor="middle" fill="#7dd3fc" font-size="9">single-tenant / self-hostable</text>
  <text x="956" y="958" text-anchor="middle" fill="#7dd3fc" font-size="9">"la tua istanza, i tuoi dati"</text>
  <text x="956" y="980" text-anchor="middle" fill="#7dd3fc" font-size="9">canali 24/7 · proattività continua</text>
  <text x="956" y="998" text-anchor="middle" fill="#7dd3fc" font-size="9">richiede: TLS + auth reale</text>
  <text x="956" y="1018" text-anchor="middle" fill="#64748b" font-size="8" font-style="italic">NON SaaS multi-tenant</text>

  <!-- Footer -->
  <text x="550" y="1058" text-anchor="middle" fill="#7d8590" font-size="10">Rust gateway ~56k LOC · TS/React ~20k · 13 crates · local-first · capable-first · core agnostico + addon · single-tenant</text>
</svg>
